# This file uses centimeters as units for non-parametric coordinates.

mtllib 3dm_Rocks2_1a.mtl
g default
v 60.170876 -8.204495 -202.051025
v 22.983227 -8.204495 -235.024170
v -22.983248 -8.204495 -235.024170
v -60.170910 -8.204495 -202.051025
v -74.375320 -8.204495 -148.699524
v -60.170898 -8.204495 -95.347961
v -22.983234 -8.204495 -62.374786
v 22.983231 -8.204495 -62.374817
v 60.170876 -8.204495 -95.347961
v 74.375305 -8.204495 -148.699524
v 51.961651 37.227562 -194.772217
v 19.847580 37.227562 -223.246765
v -19.847597 37.227562 -223.246704
v -51.961678 37.227562 -194.772217
v -64.228142 37.227562 -148.699524
v -51.961670 37.227562 -102.626770
v -19.847586 37.227562 -74.152283
v 19.847584 37.227562 -74.152344
v 51.961643 37.227562 -102.626770
v 64.228127 37.227562 -148.699524
v 33.059532 78.708702 -178.012299
v 12.627611 78.708702 -196.128571
v -12.627623 78.708702 -196.128510
v -33.059547 78.708702 -178.012299
v -40.863831 78.708702 -148.699524
v -33.059544 78.708702 -119.386688
v -12.627617 78.708702 -101.270416
v 12.627615 78.708702 -101.270447
v 33.059528 78.708702 -119.386688
v 40.863811 78.708702 -148.699524
v -0.000002 99.994186 -148.699524
v -0.000010 -8.204495 -148.699585
vt 0.899742 0.828069
vt 0.899723 0.708780
vt 0.826515 0.626242
vt 0.708082 0.611981
vt 0.589660 0.671445
vt 0.516483 0.781920
vt 0.516502 0.901209
vt 0.589710 0.983747
vt 0.708143 0.998008
vt 0.826565 0.938544
vt 0.422493 0.115959
vt 0.318401 0.133348
vt 0.523673 0.617400
vt 0.418240 0.628239
vt 0.303265 0.608904
vt 0.199288 0.555926
vt 0.132099 0.475319
vt 0.113347 0.380466
vt 0.141930 0.279998
vt 0.217553 0.191547
vt 0.415866 0.239630
vt 0.352609 0.246318
vt 0.477177 0.488268
vt 0.412230 0.506834
vt 0.342054 0.499156
vt 0.280844 0.473680
vt 0.239882 0.431962
vt 0.229328 0.379124
vt 0.249004 0.325218
vt 0.293868 0.278981
vt 0.367199 0.377724
vt 0.708113 0.804994
vt 0.470359 0.264537
vt 0.519647 0.136902
vt 0.538386 0.015910
vt 0.538289 0.736380
vt 0.137404 0.104669
vt 0.279451 0.026229
vt 0.036854 0.237334
vt 0.001796 0.383239
vt 0.032118 0.516329
vt 0.118794 0.635478
vt 0.258022 0.717892
vt 0.410206 0.743445
vt 0.416640 0.001992
vn 0.645152 0.233147 -0.727613
vn 0.645152 0.233147 -0.727613
vn 0.645152 0.233147 -0.727613
vn 0.645152 0.233147 -0.727613
vn -0.000001 0.250937 -0.968003
vn -0.000001 0.250937 -0.968003
vn -0.000001 0.250937 -0.968003
vn -0.000001 0.250937 -0.968003
vn -0.645151 0.233148 -0.727614
vn -0.645151 0.233148 -0.727614
vn -0.645151 0.233148 -0.727614
vn -0.645151 0.233148 -0.727614
vn -0.944587 0.210972 -0.251488
vn -0.944587 0.210972 -0.251489
vn -0.944587 0.210972 -0.251489
vn -0.944587 0.210972 -0.251489
vn -0.944587 0.210972 0.251488
vn -0.944587 0.210972 0.251488
vn -0.944587 0.210972 0.251488
vn -0.944587 0.210972 0.251488
vn -0.645152 0.233148 0.727613
vn -0.645152 0.233148 0.727613
vn -0.645152 0.233148 0.727613
vn -0.645152 0.233148 0.727613
vn 0.000001 0.250939 0.968003
vn 0.000001 0.250939 0.968003
vn 0.000001 0.250939 0.968003
vn 0.000001 0.250939 0.968003
vn 0.645151 0.233148 0.727614
vn 0.645151 0.233148 0.727614
vn 0.645151 0.233148 0.727614
vn 0.645151 0.233148 0.727614
vn 0.944587 0.210972 0.251489
vn 0.944587 0.210972 0.251489
vn 0.944587 0.210972 0.251489
vn 0.944587 0.210972 0.251489
vn 0.944587 0.210972 -0.251489
vn 0.944587 0.210972 -0.251489
vn 0.944587 0.210972 -0.251489
vn 0.944587 0.210972 -0.251489
vn 0.567728 0.517405 -0.640294
vn 0.567728 0.517405 -0.640294
vn 0.567728 0.517405 -0.640294
vn 0.567728 0.517405 -0.640294
vn -0.000002 0.547192 -0.837008
vn -0.000002 0.547192 -0.837007
vn -0.000002 0.547192 -0.837007
vn -0.000002 0.547192 -0.837007
vn -0.567727 0.517406 -0.640295
vn -0.567727 0.517406 -0.640295
vn -0.567727 0.517406 -0.640295
vn -0.567727 0.517406 -0.640295
vn -0.848758 0.478064 -0.225975
vn -0.848758 0.478064 -0.225975
vn -0.848758 0.478064 -0.225975
vn -0.848758 0.478064 -0.225975
vn -0.848758 0.478064 0.225974
vn -0.848758 0.478064 0.225974
vn -0.848758 0.478064 0.225974
vn -0.848758 0.478064 0.225974
vn -0.567728 0.517405 0.640295
vn -0.567728 0.517405 0.640295
vn -0.567728 0.517405 0.640295
vn -0.567728 0.517405 0.640295
vn 0.000001 0.547190 0.837008
vn 0.000001 0.547190 0.837008
vn 0.000001 0.547190 0.837008
vn 0.000001 0.547190 0.837008
vn 0.567727 0.517405 0.640295
vn 0.567727 0.517405 0.640295
vn 0.567727 0.517405 0.640295
vn 0.567727 0.517405 0.640295
vn 0.848758 0.478064 0.225975
vn 0.848758 0.478064 0.225975
vn 0.848758 0.478064 0.225975
vn 0.848758 0.478064 0.225975
vn 0.848758 0.478064 -0.225975
vn 0.848758 0.478064 -0.225975
vn 0.848758 0.478064 -0.225975
vn 0.848758 0.478064 -0.225975
vn 0.289629 0.899675 -0.326650
vn 0.289629 0.899675 -0.326650
vn 0.289629 0.899675 -0.326650
vn -0.000001 0.912336 -0.409444
vn -0.000001 0.912336 -0.409444
vn -0.000001 0.912336 -0.409444
vn -0.289629 0.899675 -0.326650
vn -0.289629 0.899675 -0.326650
vn -0.289629 0.899675 -0.326650
vn -0.458517 0.880261 -0.122076
vn -0.458517 0.880261 -0.122076
vn -0.458517 0.880261 -0.122076
vn -0.458518 0.880261 0.122076
vn -0.458518 0.880261 0.122076
vn -0.458518 0.880261 0.122076
vn -0.289628 0.899675 0.326650
vn -0.289628 0.899675 0.326650
vn -0.289628 0.899675 0.326650
vn 0.000000 0.912336 0.409443
vn 0.000000 0.912336 0.409443
vn 0.000000 0.912336 0.409443
vn 0.289629 0.899675 0.326650
vn 0.289629 0.899675 0.326650
vn 0.289629 0.899675 0.326650
vn 0.458518 0.880261 0.122076
vn 0.458518 0.880261 0.122076
vn 0.458518 0.880261 0.122076
vn 0.458518 0.880261 -0.122076
vn 0.458518 0.880261 -0.122076
vn 0.458518 0.880261 -0.122076
vn 0.000000 -1.000000 -0.000000
vn 0.000000 -1.000000 -0.000000
vn 0.000000 -1.000000 -0.000000
vn 0.000000 -1.000000 0.000000
vn 0.000000 -1.000000 0.000000
vn 0.000000 -1.000000 0.000000
vn 0.000000 -1.000000 0.000000
vn 0.000000 -1.000000 0.000000
vn 0.000000 -1.000000 0.000000
vn 0.000000 -1.000000 0.000000
vn 0.000000 -1.000000 0.000000
vn 0.000000 -1.000000 0.000000
vn 0.000000 -1.000000 0.000000
vn 0.000000 -1.000000 0.000000
vn 0.000000 -1.000000 0.000000
vn 0.000000 -1.000000 0.000000
vn 0.000000 -1.000000 0.000000
vn 0.000000 -1.000000 0.000000
vn 0.000000 -1.000000 0.000000
vn 0.000000 -1.000000 0.000000
vn 0.000000 -1.000000 0.000000
vn 0.000000 -1.000000 -0.000000
vn 0.000000 -1.000000 -0.000000
vn 0.000000 -1.000000 -0.000000
vn 0.000000 -1.000000 -0.000000
vn 0.000000 -1.000000 -0.000000
vn 0.000000 -1.000000 -0.000000
vn 0.000000 -1.000000 0.000000
vn 0.000000 -1.000000 0.000000
vn 0.000000 -1.000000 0.000000
s off
g Rock2_low
usemtl Rock2_lowSG
f 1/38/1 2/45/2 12/11/3 11/12/4
f 2/45/5 3/35/6 13/34/7 12/11/8
f 3/36/9 4/44/10 14/14/11 13/13/12
f 4/44/13 5/43/14 15/15/15 14/14/16
f 5/43/17 6/42/18 16/16/19 15/15/20
f 6/42/21 7/41/22 17/17/23 16/16/24
f 7/41/25 8/40/26 18/18/27 17/17/28
f 8/40/29 9/39/30 19/19/31 18/18/32
f 9/39/33 10/37/34 20/20/35 19/19/36
f 10/37/37 1/38/38 11/12/39 20/20/40
f 11/12/41 12/11/42 22/21/43 21/22/44
f 12/11/45 13/34/46 23/33/47 22/21/48
f 13/13/49 14/14/50 24/24/51 23/23/52
f 14/14/53 15/15/54 25/25/55 24/24/56
f 15/15/57 16/16/58 26/26/59 25/25/60
f 16/16/61 17/17/62 27/27/63 26/26/64
f 17/17/65 18/18/66 28/28/67 27/27/68
f 18/18/69 19/19/70 29/29/71 28/28/72
f 19/19/73 20/20/74 30/30/75 29/29/76
f 20/20/77 11/12/78 21/22/79 30/30/80
f 21/22/81 22/21/82 31/31/83
f 22/21/84 23/33/85 31/31/86
f 23/23/87 24/24/88 31/31/89
f 24/24/90 25/25/91 31/31/92
f 25/25/93 26/26/94 31/31/95
f 26/26/96 27/27/97 31/31/98
f 27/27/99 28/28/100 31/31/101
f 28/28/102 29/29/103 31/31/104
f 29/29/105 30/30/106 31/31/107
f 30/30/108 21/22/109 31/31/110
f 6/6/111 32/32/112 7/7/113
f 2/2/114 1/1/115 32/32/116
f 32/32/117 1/1/118 10/10/119
f 32/32/120 10/10/121 9/9/122
f 32/32/123 9/9/124 8/8/125
f 32/32/126 8/8/127 7/7/128
f 5/5/129 32/32/130 6/6/131
f 4/4/132 32/32/133 5/5/134
f 3/3/135 32/32/136 4/4/137
f 2/2/138 32/32/139 3/3/140
